<?xml version="1.0" encoding="UTF-8"?>
<svg xmlns="http://www.w3.org/2000/svg" xmlns:xlink="http://www.w3.org/1999/xlink" xmlns:xodm="http://www.corel.com/coreldraw/odm/2003" xml:space="preserve" width="131.731mm" height="52.5046mm" version="1.1" style="shape-rendering:geometricPrecision; text-rendering:geometricPrecision; image-rendering:optimizeQuality; fill-rule:evenodd; clip-rule:evenodd" viewBox="0 0 14249.34 5679.41">
 <defs>
  <style type="text/css">
   
    .fil11 {fill:#434242}
    .fil12 {fill:#E31E24}
    .fil13 {fill:#4FA64C}
    .fil1 {fill:url(#id0)}
    .fil10 {fill:url(#id1)}
    .fil7 {fill:url(#id2)}
    .fil8 {fill:url(#id3)}
    .fil4 {fill:url(#id4)}
    .fil3 {fill:url(#id5)}
    .fil5 {fill:url(#id6)}
    .fil0 {fill:url(#id7)}
    .fil6 {fill:url(#id8)}
    .fil2 {fill:url(#id9)}
    .fil9 {fill:url(#id10)}
   
  </style>
  <linearGradient id="id0" gradientUnits="userSpaceOnUse" x1="427.36" y1="1905.37" x2="427.36" y2="1054.48">
   <stop offset="0" style="stop-opacity:1; stop-color:#20894C"></stop>
   <stop offset="1" style="stop-opacity:1; stop-color:#4FA64D"></stop>
  </linearGradient>
  <linearGradient id="id1" gradientUnits="userSpaceOnUse" xlink:href="#id0" x1="4259.11" y1="4662.14" x2="4259.11" y2="2829.03">
  </linearGradient>
  <linearGradient id="id2" gradientUnits="userSpaceOnUse" x1="7784.77" y1="4662.14" x2="7784.77" y2="2829.03">
   <stop offset="0" style="stop-opacity:1; stop-color:#1D874C"></stop>
   <stop offset="1" style="stop-opacity:1; stop-color:#54A94E"></stop>
  </linearGradient>
  <linearGradient id="id3" gradientUnits="userSpaceOnUse" xlink:href="#id2" x1="11730.33" y1="4662.14" x2="11730.33" y2="2829.03">
  </linearGradient>
  <linearGradient id="id4" gradientUnits="userSpaceOnUse" xlink:href="#id0" x1="1318.95" y1="4661.15" x2="1318.95" y2="2078.38">
  </linearGradient>
  <linearGradient id="id5" gradientUnits="userSpaceOnUse" xlink:href="#id0" x1="2230.51" y1="4659.13" x2="2230.51" y2="2476.82">
  </linearGradient>
  <linearGradient id="id6" gradientUnits="userSpaceOnUse" xlink:href="#id2" x1="13255.98" y1="4662.14" x2="13255.98" y2="2829.03">
  </linearGradient>
  <linearGradient id="id7" gradientUnits="userSpaceOnUse" xlink:href="#id0" x1="2612.92" y1="2462.81" x2="2612.92" y2="0">
  </linearGradient>
  <linearGradient id="id8" gradientUnits="userSpaceOnUse" xlink:href="#id2" x1="9812.15" y1="4662.16" x2="9812.15" y2="2829.03">
  </linearGradient>
  <linearGradient id="id9" gradientUnits="userSpaceOnUse" xlink:href="#id0" x1="402.54" y1="4231.27" x2="402.54" y2="2079.47">
  </linearGradient>
  <linearGradient id="id10" gradientUnits="userSpaceOnUse" xlink:href="#id2" x1="5715.42" y1="4662.16" x2="5715.42" y2="2829.03">
  </linearGradient>
 </defs>
 <g id="Layer_x0020_1">
  <metadata id="CorelCorpID_0Corel-Layer"></metadata>
  <path class="fil0" d="M895.82 800.19c179.05,80.52 388.1,96.27 599,70.14 -205.59,-91.36 -468.04,-202 -765.29,-447.41 -18.52,-15.33 -78.99,-87.67 -40.26,-62.94 108.91,69.28 519.7,227.1 899.29,263.97 204.75,19.96 466.95,232.53 704.81,421.26 216.02,171.37 443.38,360.65 717.33,168.43 -252.9,235.41 -292.79,239.15 -574.76,357.58 -209.64,95.69 -504.1,-11.6 -587.28,-43.27 -77.75,-29.67 -13.63,-15.13 17.38,-10.84 82.61,11.4 231.4,-27.09 288.37,-235.96 5.4,-19.87 12.39,-36.83 20.61,-51.45 -163.99,190.74 -328.31,337.97 -673.76,172.67 -124.41,-59.58 -78.66,-44.09 7.86,-27.02 137.46,27.17 339.89,9.78 471.97,-179.8 3.94,-5.61 7.97,-10.91 12.12,-16.01 -91.04,56.94 -190.47,122.82 -366.23,111.13 -340.6,-22.68 -768.06,-296.68 -768.06,-296.68 0,0 470.17,269.91 860.88,85.52 -517.17,90.07 -1079.6,-394.32 -823.98,-279.32zm-80.36 -800.19c25.57,38.68 440.61,352.25 846.8,421.66 556.62,95.06 1013.76,1080.83 1335.03,775.59 -273.02,284.99 -756.18,-438.35 -1253.24,-618.35 -197.01,-71.28 -334.89,-55.98 -634.19,-250.11 -49.61,-32.14 -359.23,-253.65 -294.39,-328.78zm2439.36 749.04c-89.6,26.97 -226.79,61.54 -394.77,187.44 -130.66,97.97 -289.29,136.17 -316.59,129.57 0,0 79.2,57.75 226.45,-17.47 147.38,-75.2 177.41,-134.62 256.11,-165.86 -48.22,104.7 -128.06,156.07 -270.98,205.91 314.99,-54.06 329.25,-208.19 499.77,-339.59zm-362.07 370.67c-177.19,99.88 -254.74,-3.86 -254.74,-3.86 0,0 64.09,132.62 237.17,69.32 173.15,-63.3 246.13,-222.26 308.62,-279.58 52.33,-48.05 83.11,-67.09 91.77,-72.03 1.42,-0.79 2.23,-1.18 2.44,-1.32l0.06 -0.03 0.04 0 -0.04 0 -0.06 0.03 -2.44 1.32c-197.63,107.78 -206.47,186.79 -382.82,286.15zm1360.52 -634.63l0 0zm-525.91 1506.56c-63.77,73.34 -164.83,171.64 -261.66,191.54 -502.11,103.05 -552.67,113.42 -763.78,279.64 -163.5,-533.01 -648.02,-587.28 -929.31,-404.86l-0.02 0 0 0 0.02 0c152.93,-152.92 391.15,-329.25 689.56,-449.93 210.36,-84.95 495.66,-226.35 584.12,-424.21 103.27,-231.15 313.82,-426.97 365.24,-353.47 56.16,80.31 187.79,138.06 312.98,63.67 0,0 -85.69,237.43 -7.44,348.22 19.96,22.43 45,43.52 76.48,61.34l0.23 0c2.53,1.45 4.99,2.83 7.46,4.36l0.12 0.08 0.15 0.1 0.11 0.1 0.23 0.1 0.03 0c2.55,1.51 5.09,3.06 7.5,4.61l0.1 0 0.23 0.21 0.1 0 0.22 0.18 0.14 0.09 0.1 0.08 0.11 0.06 0.14 0.04c2.16,1.41 4.42,2.79 6.63,4.34l0 0 0.66 0.43 0.14 0.04 0.1 0.11c2,1.28 3.94,2.56 5.86,3.89l0.12 0.11 0.12 0.1 0.12 0.11 1.4 0.97 0.04 0 0.06 0.09 0.09 0.04c1.77,1.17 3.41,2.4 5.07,3.59l0.11 0.1 0.05 0 0.12 0.02 2.21 1.7 0.06 0.03 0.03 0.05 0.17 0.11 0.04 0 3.56 2.67 0.04 0 0.11 0.09 0.06 0.01 0.08 0.09 0 0 0.06 0.02 0.06 0.1 0.06 0.05 0.03 0.04 3.13 2.35 0.09 0.1 0.02 0.03 2.65 2.02c5.66,-12.58 23.79,-23.13 43.62,-37.53l0.21 -0.21 0.7 -0.52 1.06 -0.92 1.84 -1.41 0.15 -0.19 1.59 -1.24 0.04 -0.04 1.73 -1.55 1.22 -0.98 0.61 -0.49 0.24 -0.15 0.13 -0.12 0.3 -0.28 0.05 -0.12 0.13 -0.11 0.48 -0.28 0.04 -0.14 0.61 -0.41 0.06 -0.06 0.42 -0.38 0.08 -0.05 0.12 -0.12 0.18 -0.19 0.11 -0.12 0.1 -0.12 0.16 -0.03 0.05 -0.11 0.09 -0.05 0.08 -0.04 0.04 -0.04 0.03 -0.1 0.21 -0.11 0.12 -0.06 0.11 -0.09 0.1 -0.11 0.05 -0.05 0.1 -0.11 0.12 -0.05 0.11 -0.1 0.09 -0.11 0.12 -0.11 0.11 -0.04 0.15 -0.24 0.16 -0.02 0.12 -0.13 0 0 0.03 -0.13 0.17 -0.12 0.05 -0.05 0.12 -0.09 0.12 -0.04 0.19 -0.15 0.11 -0.11 0.12 -0.12 0.16 -0.15 0.14 -0.12 0.09 -0.04 0.11 -0.1 0.1 -0.09 0.04 -0.16 0.14 -0.04 0.61 -0.61 1.84 -1.62 0.92 -0.66 1.65 -1.5 0.17 -0.22 0.1 -0.13 0.09 -0.04 0.04 -0.06 0.1 0 0.1 -0.1 0 -0.04 0.11 -0.05 0.04 -0.06 0.05 -0.12 0.11 -0.04 0.06 -0.11 0.08 -0.04 0.11 -0.06 0.11 -0.09 0.09 -0.09 0.1 -0.1 0.11 -0.13 0 -0.04 0 -0.01 0.12 -0.1 0.11 -0.04 0.1 -0.11 0.13 -0.05 0.11 -0.1 0.05 -0.14 0.13 -0.13 0.08 -0.04 0.15 -0.11 0.06 -0.09 0.11 -0.03 0.04 -0.12 0.06 0 0.03 -0.12 0.13 -0.03 0.05 -0.12 0.11 -0.04 0.05 -0.06 0 -0.04 0.04 0 0.11 -0.05 0.04 -0.11 0.06 -0.11 0.11 -0.06 0.16 -0.18 0.05 -0.02 0.65 -0.61 0.06 -0.02 0.04 -0.09 0.12 -0.1 0.1 -0.05 0 -0.05 0.19 -0.15 1.37 -1.28 0 -0.05 1.5 -1.45 0.1 -0.1 0.06 -0.12 0 -0.04 0.04 -0.03 0.06 0 0 0 0.05 -0.06 0.03 -0.04 0.08 -0.05 0.75 -0.74 0.06 -0.09 0.04 -0.02 0.1 -0.17 0.04 -0.08 0.08 -0.02 0 0 0.05 0 0 -0.08 0 0 1 -0.98 0.03 -0.02 0.04 -0.09 0.06 -0.04 0 -0.04 0.04 0 0.16 -0.17 0.66 -0.71 0.35 -0.4 0.66 -0.69 0.21 -0.19 0.92 -0.98 1.36 -1.54 0.08 -0.01 1.1 -1.36 0.11 -0.09 1.21 -1.48 0.82 -0.98 0.15 -0.23 0.58 -0.67 0.03 0 0.53 -0.77 0.43 -0.54 0.76 -1.04 0.23 -0.17 0.1 -0.29 0.69 -0.98 0.16 -0.15c0.39,-0.55 0.74,-1.12 1.08,-1.67 59.01,-88.75 89.82,-184.67 106.83,-209.76 22,-32.29 107.2,-59.35 197.1,-80.32l1.41 -0.38 0.58 -0.1c82.23,-19.07 96.56,30.57 141.18,22.73 3.05,-1.29 6.27,-2.51 9.58,-3.34 4.5,-2.37 7.73,-4.9 8.92,-5.15 79.62,-14.21 138.91,138.36 139.14,138.76l4.24 10.81 -11.9 4.8 -102.85 46.88 -16.08 0 -39.66 -49.8c-2.93,0.3 -7.5,-0.69 -14.35,1.46 -56.85,18.04 -167.68,-34.61 -209.2,7.92 -19.34,19.7 -66.17,147.28 -120.84,295.76 -13.71,37.29 -38.05,90.88 -52.49,129.54l0 0 0.06 0.32 0.03 0.67 0 0.39 0.04 0.3 0 0.35 0 0 0.06 0.29 0.04 0.3 0 0.32 0.08 0.3 0.04 0.37 0 0.17 0 0.17 0 0.17 0 0.26 0 0.28 0 0.27 0.06 0.27 0 0.3 0.08 0.25 0 0 0 0.25 0.05 0.21 0 0.25 0 0.3 0.04 0.18 0 0.16 0 0.14 0 0.16 0.08 0.15 0 0.22 0 0.27 0.03 0.15 0 0.19 0 0.18 0 0.06 0 0.16 0.03 0.15 0 0.15 0 0.26 0 0.13 0 0.11 0 0.02 0 0.11 0 0.18 0 0.13 0 0.15 0 0.06 0 0.17 0 0.09 0 0.02 0 0.1 0 0.15 0.06 0.02 0 0.1 0 0.09 0 0.12 0 0 0 0.1 0 0.04 0 0.1 0 0.03 0 0.09 0 0 0 0 0 0.05 0 0 0 0 0 0.08 0 0 0 0c-0.06,-0.08 -0.61,-1.51 -1.67,-4.1 2.96,15.4 4.53,25.93 4.53,25.93 0,0 181.97,-185.06 201.92,-205.87 33.57,-35.05 117.07,-82.86 210.12,-99.38 44.41,8.83 66.44,78.38 87.5,88.59 85.21,41.41 98.58,228.04 26.51,257.48 -196.5,-50.85 -110.64,-245.85 -196.71,-164.87 -164.98,155.09 -259.95,362.51 -369.84,548.34 0,0 -67.55,28.34 -90.25,29.18 -60.03,2.17 -76.45,-20.9 -118.45,-61.35zm246.32 -413.95l-246.32 413.95 246.32 -413.95zm-467.66 -1167.56c17.86,-41.69 12.76,-66.32 12.76,-66.32 0,0 24.07,28.29 -1.14,85.91 0,0 0.23,3.5 61.17,-107.24 60.95,-110.61 42.37,-145.53 42.37,-145.53 46.19,118.34 -66.22,188.36 -100.45,281.13 0,0 40.1,-47.95 83.7,-87.48 43.67,-39.61 43.57,-75.59 43.57,-75.59 0,0 0.87,38.92 -14.45,81.31 -8.97,25.03 -23.72,51.3 -47.68,71.55 -15.43,12.94 -27.79,24.55 -37.74,34.66 29.16,-25.69 47.7,-40.69 47.7,-40.69 86.83,-48.34 78.31,-21.93 128.61,-42.47 15.89,-6.51 -81.65,181.89 -81.65,181.89 0,0 68.7,-70.67 133.07,-115.87 18.23,-35.22 -11.64,-59.05 -14.66,-66.3 -6.94,-16.54 334.63,-111.96 358.97,-130.29 17.45,-6.26 31.96,-10.42 44.26,-12.96 15.08,-0.88 27.12,0.71 27.12,0.71 0,0 0,0 -30.33,34.28 -30.41,34.3 -69.21,28.48 -69.21,28.48 0,0 44.98,18.33 81.03,-16.96 36.01,-35.3 39,-43.3 57.88,-20.82 10.7,12.87 23.98,17.7 35.4,22.99 10.24,8.15 19.6,17 24,24.76 0.87,4.87 0.47,10.07 -0.96,15.53 -5.86,4.46 -11.14,16.39 -15.78,31.4 -3.27,4.76 0.66,0.21 -10.47,13.96 -11.11,13.73 -23.78,91.09 -23.78,91.09l-95.22 13.24c-108.63,63.97 -207.39,208.45 -207.39,208.45 -104.18,213.83 -280.82,178.19 -280.82,178.19 11.89,3.98 23.4,6.91 34.55,8.91l-0.16 0c-208,34.17 -191.27,-47.81 -260.47,-98.49 -69.32,-50.75 -196.16,43.9 -196.16,43.9 33.26,-56.93 79.03,-115.09 126.92,-168.6 -4.16,-0.8 -11.11,-2.46 -20.36,-5.78l-14.53 10.02 -52.19 47.45c0,0 -65.4,-12.85 -335.74,135.89 -270.44,148.72 -428.73,91.71 -428.73,91.71 0,0 126.82,35.51 406.5,-124.77 117.96,-67.57 210.28,-105.73 277.59,-127.2 -60.2,-1.68 -134.82,-23.08 -152.93,-45.52 0,0 45.78,39.57 167.28,22.86 67.23,-9.18 103.17,-13.05 121.81,-14.74 -23.43,-9.97 -56.99,-29.12 -96.88,-65.66 -61.65,-56.36 -104.2,-78.95 -172.35,-120.26 0,0 0,0 48.64,13.71 48.73,13.72 226.51,11.79 275.38,32.62 3.1,1.29 5.98,2.73 8.75,4.4 -32.14,-49.96 -68.69,-111.64 -79.27,-145.85 -6.3,-20.37 -11.64,-32.59 -16,-39.81l0.03 -0.04c10.06,5.21 24.46,12.09 39.99,17.53 29.01,10.1 130.66,30.09 139.51,72.71 7.42,35.24 21.68,81.66 26.33,96.68l2.04 -1.91c-11.77,-35.26 -18.44,-66.67 0.52,-110.79l0 0z"></path>
  <path class="fil1" d="M430.17 1054.46c559.29,0 559.29,850.88 0,850.88 -234.75,0 -425.12,-190.48 -425.12,-425.46 0,-234.92 190.37,-425.42 425.12,-425.42z"></path>
  <path class="fil2" d="M799.34 3436.43c10.31,0.32 -546.88,1141.1 -797.06,688.7l-2.28 -2045.62c0,0 793.06,-18.27 801.73,638.58 8.66,656.89 -2.39,718.34 -2.39,718.34l0 0z"></path>
  <path class="fil3" d="M1832.63 3270.77c-3.71,0 590.49,-1137.08 801.54,-689.61l-2.22 2077.88c0,0 -793.06,18.33 -801.72,-638.57 -8.68,-656.87 2.4,-749.69 2.4,-749.69l0 0z"></path>
  <path class="fil4" d="M2635.03 2582.35c-464.85,-566.18 -1635.54,3497.4 -2632.19,1542.96 419.37,597.79 1608.33,-3420.85 2632.19,-1542.96l0 0z"></path>
  <path class="fil5" d="M14249.26 4662.14l-460.2 0 -153.42 -421.84 -759.33 0 -161.06 421.84 -452.55 0 751.66 -1833.11 444.86 0 790.02 1833.11 0.02 0zm-759.33 -736.3l-245.45 -644.28 -237.78 644.28 483.21 0 0.02 0z"></path>
  <path class="fil6" d="M10770.89 4662.14l-513.88 0 -475.54 -720.97 -490.86 0 0 720.97 -437.18 0 0 -1833.11 1334.57 0c153.41,0 283.79,61.34 383.49,176.4 92.03,122.73 145.73,260.78 145.73,414.19 0,130.38 -46.03,237.77 -130.4,329.8 -84.36,84.38 -191.73,138.06 -322.15,161.09l506.22 751.66 0 -0.03zm-582.89 -1257.86c0,-84.36 -30.69,-153.4 -92.03,-199.42 -69.04,-38.35 -153.42,-61.34 -260.79,-61.34l-544.57 0 0 506.21 559.91 0c76.7,0 153.41,-15.33 214.76,-53.67 84.36,-46.02 122.72,-107.39 122.72,-191.74l0 -0.03z"></path>
  <path class="fil7" d="M8778.05 4662.14l-460.2 0 -153.42 -421.84 -751.66 0 -168.73 421.84 -452.54 0 751.66 -1833.11 452.54 0 782.32 1833.11 0.03 0zm-751.64 -736.3l-245.45 -644.28 -245.44 644.28 490.86 0 0.02 0z"></path>
  <polygon class="fil8" points="12823.28,2829.03 11948.93,4662.14 11488.72,4662.14 10637.36,2829.03 11135.9,2829.03 11726.5,4224.96 12324.75,2829.03 12823.31,2829.03 "></polygon>
  <path class="fil9" d="M6704.85 4086.9c0,161.09 -53.68,299.13 -161.06,406.53 -107.4,107.38 -237.79,168.73 -398.84,168.73l-1296.2 0 0 -329.82 1066.12 0c69.03,0 130.39,-15.33 176.4,-53.67 61.35,-38.36 84.37,-84.37 84.37,-153.42 0,-161.08 -107.4,-237.78 -329.81,-237.78l-536.91 0c-153.41,0 -291.46,-46.02 -406.52,-138.06 -115.05,-99.7 -176.4,-222.42 -176.4,-368.17 0,-161.06 61.35,-299.11 168.74,-398.82 115.05,-99.7 268.43,-153.41 452.53,-153.41l1234.87 0 0 314.46 -1089.14 0c-46.02,0 -92.04,23.02 -145.73,61.34 -46.02,38.35 -76.7,92.03 -76.7,145.72 0,61.34 23.02,115.06 76.7,153.42 46.02,46.02 107.4,69.03 168.74,69.03l598.24 0c184.08,0 329.82,46.02 437.19,138.05 99.7,99.71 153.41,222.43 153.41,375.84l0 0.02z"></path>
  <polygon class="fil10" points="4504.54,4662.14 4013.68,4662.14 4013.68,2829.03 4504.54,2829.03 "></polygon>
  <path class="fil11" d="M6.56 5669.62l0 -586.3 77.8 0 0 586.3 -77.8 0zm189.02 -188.35l72.87 -6.54c3.41,29.45 11.44,53.64 24.14,72.61 12.7,18.83 32.34,34.11 58.97,45.82 26.6,11.62 56.62,17.47 89.91,17.47 29.64,0 55.71,-4.35 78.35,-13.22 22.66,-8.89 39.44,-21.05 50.5,-36.46 11.03,-15.4 16.64,-32.18 16.64,-50.2 0,-18.28 -5.33,-34.25 -15.97,-48.05 -10.64,-13.66 -28.24,-25.07 -52.81,-34.53 -15.71,-5.98 -50.5,-15.57 -104.42,-28.54 -53.9,-12.95 -91.58,-25.11 -113.11,-36.57 -28.01,-14.71 -48.74,-32.99 -62.38,-54.71 -13.77,-21.7 -20.6,-46.11 -20.6,-73.01 0,-29.71 8.46,-57.46 25.24,-83.09 16.8,-25.82 41.21,-45.32 73.57,-58.67 32.21,-13.4 68.08,-20.1 107.52,-20.1 43.41,0 81.78,6.97 114.92,21.01 33.16,13.93 58.67,34.54 76.57,61.84 17.87,27.14 27.41,57.98 28.77,92.38l-74.51 5.73c-3.97,-36.99 -17.47,-64.95 -40.52,-83.78 -23.06,-18.95 -57.19,-28.39 -102.21,-28.39 -46.97,0 -81.2,8.62 -102.64,25.82 -21.41,17.2 -32.2,37.94 -32.2,62.19 0,21.04 7.64,38.35 22.8,52.03 15,13.51 53.9,27.57 116.94,41.74 63.05,14.31 106.3,26.77 129.79,37.38 33.97,15.7 59.23,35.5 75.45,59.67 16.24,24 24.29,51.73 24.29,83.09 0,31.26 -8.87,60.47 -26.74,88.02 -17.87,27.58 -43.4,49.02 -76.83,64.32 -33.45,15.27 -70.96,22.89 -112.85,22.89 -52.95,0 -97.31,-7.74 -133.08,-23.16 -35.88,-15.43 -63.85,-38.63 -84.19,-69.76 -20.47,-31 -31.1,-66.07 -32.2,-105.22zm507.26 188.35l224.91 -586.3 85.3 0 238.67 586.3 -88.28 0 -67.84 -177.69 -246.87 0 -63.6 177.69 -82.28 0zm168.69 -240.78l199.77 0 -61.12 -162.53c-18.43,-49.41 -32.36,-90.21 -42.03,-122.42 -8.07,38.21 -18.84,75.74 -32.36,112.85l-64.25 172.09zm443.37 240.78l0 -586.3 259.86 0c52.28,0 91.99,5.31 119.13,15.84 27.16,10.48 48.87,29.04 65.11,55.7 16.26,26.59 24.29,56.09 24.29,88.29 0,41.59 -13.5,76.68 -40.4,105.22 -26.87,28.5 -68.37,46.51 -124.61,54.33 20.63,9.78 36.17,19.63 46.83,29.17 22.65,20.75 44.08,46.82 64.14,78.08l101.39 159.68 -96.89 0 -77.5 -122.02c-22.53,-35.34 -41.21,-62.25 -55.82,-80.95 -14.75,-18.68 -27.86,-31.63 -39.46,-39.15 -11.47,-7.34 -23.33,-12.57 -35.34,-15.57 -8.74,-1.77 -23.07,-2.74 -43.14,-2.74l-89.78 0 0 260.42 -77.81 0zm77.81 -327.56l166.48 0c35.5,0 63.07,-3.7 82.98,-11.04 19.91,-7.26 35.08,-18.96 45.31,-35.2 10.36,-16.11 15.57,-33.58 15.57,-52.55 0,-27.72 -9.97,-50.63 -30.04,-68.5 -20.07,-17.87 -51.71,-26.74 -94.97,-26.74l-185.33 0 0 194.03zm664.19 327.56l-226.54 -586.3 84.06 0 152.31 426.08c12.14,34.12 22.5,66.03 30.7,95.92 9,-32.09 19.5,-64 31.51,-95.92l158.05 -426.08 79.17 0 -228.62 586.3 -80.64 0zm254.1 0l224.92 -586.3 85.3 0 238.68 586.3 -88.29 0 -67.83 -177.69 -246.87 0 -63.6 177.69 -82.31 0zm168.7 -240.78l199.78 0 -61.13 -162.53c-18.43,-49.41 -32.35,-90.21 -42.06,-122.42 -8.04,38.21 -18.81,75.74 -32.34,112.85l-64.25 172.09zm637.16 240.78l0 -586.3 77.81 0 0 586.3 -77.81 0zm213.59 0l0 -586.3 79.68 0 307.61 460.2 0 -460.2 74.51 0 0 586.3 -79.69 0 -307.6 -460.19 0 460.19 -74.51 0zm596.24 0l0 -586.3 395.49 0 0 68.81 -317.72 0 0 182.59 275.14 0 0 68.77 -275.14 0 0 266.13 -77.77 0zm472.3 -285.36c0,-97.2 26.21,-173.32 78.48,-228.32 52.27,-54.98 119.68,-82.45 202.39,-82.45 54.18,0 102.89,12.97 146.43,38.75 43.4,25.82 76.57,61.86 99.36,108.08 22.78,46.13 34.25,98.54 34.25,157.08 0,59.4 -12.01,112.58 -36.03,159.39 -24.01,46.99 -58.01,82.47 -101.95,106.47 -44.07,24.14 -91.58,36.15 -142.46,36.15 -55.27,0 -104.55,-13.37 -148.08,-39.96 -43.4,-26.62 -76.41,-62.93 -98.8,-109.05 -22.38,-46.02 -33.58,-94.74 -33.58,-146.15zm80.25 1.36c0,70.55 18.98,126.09 56.9,166.62 37.97,40.51 85.58,60.85 142.89,60.85 58.43,0 106.31,-20.47 144.11,-61.41 37.68,-40.93 56.51,-99.07 56.51,-174.41 0,-47.59 -8.07,-89.25 -24.17,-124.72 -16.11,-35.5 -39.71,-63.05 -70.69,-82.56 -31.1,-19.5 -65.91,-29.36 -104.54,-29.36 -54.85,0 -102.08,18.83 -141.66,56.48 -39.57,37.7 -59.36,100.47 -59.36,188.51zm729.45 284l0 -517.49 -193.26 0 0 -68.81 464.29 0 0 68.81 -193.26 0 0 517.49 -77.77 0zm352.75 0l0 -586.3 423.34 0 0 68.81 -345.54 0 0 180.12 323.44 0 0 68.77 -323.44 0 0 199.8 359.45 0 0 68.8 -437.25 0zm962.13 -205.68l77.8 19.64c-16.24,63.77 -45.46,112.18 -87.61,145.62 -42.18,33.44 -93.77,50.21 -154.76,50.21 -63.06,0 -114.38,-12.83 -153.95,-38.58 -39.57,-25.69 -69.61,-62.93 -90.21,-111.65 -20.61,-48.86 -30.97,-101.14 -30.97,-157.08 0,-60.98 11.6,-114.22 34.94,-159.68 23.33,-45.42 56.5,-79.95 99.48,-103.57 43,-23.61 90.34,-35.35 141.94,-35.35 58.68,0 107.92,14.87 147.79,44.77 39.97,29.9 67.81,71.8 83.51,125.84l-76.14 18.01c-13.53,-42.6 -33.31,-73.69 -59.1,-93.08 -25.8,-19.5 -58.27,-29.21 -97.44,-29.21 -44.89,0 -82.56,10.77 -112.72,32.34 -30.17,21.54 -51.45,50.63 -63.58,86.94 -12.29,36.44 -18.43,73.98 -18.43,112.58 0,49.81 7.24,93.33 21.7,130.43 14.47,37.28 36.98,65 67.55,83.43 30.57,18.41 63.6,27.54 99.21,27.54 43.4,0 79.97,-12.54 109.99,-37.53 30.03,-25.08 50.36,-62.21 61.01,-111.62zm177.01 205.68l0 -586.3 77.78 0 0 241.54 302.97 0 0 -241.54 77.77 0 0 586.3 -77.77 0 0 -275.98 -302.97 0 0 275.98 -77.78 0zm815.55 0l0 -586.3 221.36 0c38.91,0 68.64,1.9 89.25,5.58 28.79,4.81 52.94,13.95 72.47,27.32 19.5,13.48 35.21,32.31 47.08,56.5 11.87,24.12 17.74,50.77 17.74,79.83 0,49.67 -15.84,91.81 -47.62,126.21 -31.67,34.54 -89.13,51.74 -172.09,51.74l-150.41 0 0 239.12 -77.78 0zm77.78 -307.89l151.48 0c50.21,0 85.71,-9.27 106.87,-27.97 21.01,-18.68 31.51,-44.92 31.51,-78.9 0,-24.44 -6.13,-45.42 -18.56,-62.89 -12.41,-17.47 -28.78,-29.1 -48.98,-34.67 -13.1,-3.41 -37.26,-5.17 -72.34,-5.17l-149.98 0 0 209.6zm470.02 307.89l0 -586.3 259.83 0c52.27,0 91.98,5.31 119.13,15.84 27.18,10.48 48.86,29.04 65.1,55.7 16.26,26.59 24.31,56.09 24.31,88.29 0,41.59 -13.51,76.68 -40.4,105.22 -26.88,28.5 -68.37,46.51 -124.59,54.33 20.61,9.78 36.17,19.63 46.81,29.17 22.66,20.75 44.08,46.82 64.14,78.08l101.39 159.68 -96.89 0 -77.51 -122.02c-22.51,-35.34 -41.2,-62.25 -55.8,-80.95 -14.77,-18.68 -27.84,-31.63 -39.46,-39.15 -11.47,-7.34 -23.32,-12.57 -35.35,-15.57 -8.73,-1.77 -23.06,-2.74 -43.11,-2.74l-89.81 0 0 260.42 -77.77 0zm77.77 -327.56l166.52 0c35.48,0 63.04,-3.7 82.96,-11.04 19.94,-7.26 35.09,-18.96 45.3,-35.2 10.4,-16.11 15.57,-33.58 15.57,-52.55 0,-27.72 -9.96,-50.63 -30.03,-68.5 -20.07,-17.87 -51.72,-26.74 -94.98,-26.74l-185.33 0 0 194.03zm525 327.56l0 -586.3 77.81 0 0 586.3 -77.81 0zm381.45 0l-226.53 -586.3 84.05 0 152.31 426.08c12.14,34.12 22.51,66.03 30.68,95.92 9.03,-32.09 19.54,-64 31.54,-95.92l158.05 -426.08 79.15 0 -228.6 586.3 -80.65 0zm254.1 0l224.9 -586.3 85.31 0 238.67 586.3 -88.28 0 -67.84 -177.69 -246.87 0 -63.58 177.69 -82.31 0zm168.69 -240.78l199.79 0 -61.14 -162.53c-18.43,-49.41 -32.34,-90.21 -42.03,-122.42 -8.07,38.21 -18.84,75.74 -32.34,112.85l-64.27 172.09zm530.06 240.78l0 -517.49 -193.26 0 0 -68.81 464.29 0 0 68.81 -193.26 0 0 517.49 -77.77 0zm352.75 0l0 -586.3 423.34 0 0 68.81 -345.54 0 0 180.12 323.44 0 0 68.77 -323.44 0 0 199.8 359.45 0 0 68.8 -437.25 0zm768.76 0l0 -586.3 77.77 0 0 517.51 288.24 0 0 68.8 -366.01 0zm471.76 0l0 -586.3 77.81 0 0 586.3 -77.81 0zm212.76 0l0 -586.3 116.28 0 138.65 415.01c12.83,38.62 22.11,67.55 27.97,86.81 6.7,-21.29 17.2,-52.67 31.4,-94.03l141.1 -407.79 103.86 0 0 586.3 -74.51 0 0 -490.51 -171.15 490.51 -69.88 0 -169.22 -499.5 0 499.5 -74.52 0zm696.83 0l0 -586.3 77.77 0 0 586.3 -77.77 0zm363.42 0l0 -517.49 -193.26 0 0 -68.81 464.29 0 0 68.81 -193.26 0 0 517.49 -77.77 0zm352.77 0l0 -586.3 423.32 0 0 68.81 -345.54 0 0 180.12 323.44 0 0 68.77 -323.44 0 0 199.8 359.47 0 0 68.8 -437.25 0zm544.5 0l0 -586.3 202 0c45.57,0 80.37,2.74 104.41,8.31 33.55,7.8 62.22,21.86 85.95,42.07 30.98,26.18 54.06,59.48 69.34,100.15 15.44,40.69 23.07,87.21 23.07,139.47 0,44.5 -5.19,83.94 -15.57,118.32 -10.37,34.41 -23.74,62.91 -39.98,85.42 -16.39,22.53 -34.13,40.27 -53.5,53.1 -19.23,12.95 -42.58,22.8 -69.88,29.48 -27.43,6.67 -58.81,9.98 -94.28,9.98l-211.56 0zm77.78 -68.8l125.01 0c38.64,0 68.94,-3.54 90.91,-10.8 21.97,-7.21 39.44,-17.34 52.54,-30.44 18.28,-18.43 32.61,-43.25 42.85,-74.38 10.23,-31.09 15.44,-68.77 15.44,-113.12 0,-61.39 -10.1,-108.61 -30.17,-141.67 -20.07,-33.01 -44.48,-55.11 -73.29,-66.32 -20.74,-8.04 -54.19,-11.97 -100.31,-11.97l-122.98 0 0 448.7z"></path>
  <path class="fil12" d="M3769.18 461.79c-1.34,1.98 -28.72,16.28 -101.4,86.61 0,0 47.27,-82.66 66.12,-143.38 0,0 14.47,-4.9 17.12,-2.75 22.35,18.35 30.72,40.96 18.15,59.52z"></path>
  <circle class="fil13" cx="4258.22" cy="2388.99" r="244.69"></circle>
 </g>
</svg>
